<svg xmlns="http://www.w3.org/2000/svg" viewBox="0 0 512 512" width="512" height="512">
  <defs>
    <linearGradient id="grad" x1="0%" y1="0%" x2="100%" y2="100%">
      <stop offset="0%" style="stop-color:#e91e63;stop-opacity:1" />
      <stop offset="100%" style="stop-color:#9c27b0;stop-opacity:1" />
    </linearGradient>
  </defs>
  <rect width="512" height="512" rx="128" fill="url(#grad)"/>
  <g fill="#ffffff">
    <!-- Music note -->
    <path d="M352 96c-8.8 0-16 7.2-16 16v144c-17.7-8.9-38.6-14-61-14-70.7 0-128 43-128 96s57.3 96 128 96 128-43 128-96V192l80-48c7.4-4.4 9.8-14 5.4-21.4s-14-9.8-21.4-5.4L368 160v-48c0-8.8-7.2-16-16-16zm-77 336c-52.9 0-96-32.4-96-72s43.1-72 96-72 96 32.4 96 72-43.1 72-96 72z"/>
    <!-- Heart -->
    <path d="M256 448l-32-29.9C144.7 345.8 96 302.5 96 256c0-44.2 35.8-80 80-80 26.5 0 51.2 13 66.6 33C257 189 281.5 176 308 176c44.2 0 80 35.8 80 80 0 46.5-48.7 89.8-128 162.1L256 448z" opacity="0.9"/>
  </g>
  <text x="256" y="480" font-family="Arial, sans-serif" font-size="120" font-weight="bold" fill="#ffffff" text-anchor="middle">ML</text>
</svg>
